<?xml version="1.0" standalone="no"?>
<!DOCTYPE svg PUBLIC "-//W3C//DTD SVG 20010904//EN"
 "http://www.w3.org/TR/2001/REC-SVG-20010904/DTD/svg10.dtd">
<svg version="1.0" xmlns="http://www.w3.org/2000/svg"
 width="512.000000pt" height="512.000000pt" viewBox="0 0 512.000000 512.000000"
 preserveAspectRatio="xMidYMid meet">
<metadata>
Created by potrace 1.14, written by Peter Selinger 2001-2017
</metadata>
<g transform="translate(0.000000,512.000000) scale(0.100000,-0.100000)"
fill="#000000" stroke="none">
<path d="M864 5107 c-6 -16 -119 -38 -279 -55 -75 -8 -108 -18 -201 -61 -61
-28 -116 -51 -123 -51 -7 0 -26 -7 -43 -16 -26 -13 -36 -14 -51 -4 -16 10 -32
7 -93 -17 l-74 -28 0 -528 c1 -366 4 -526 11 -521 7 4 7 -2 0 -15 -15 -26 -13
-211 1 -211 6 0 6 -6 -1 -14 -8 -9 -8 -16 -2 -20 5 -4 14 1 19 10 6 11 11 13
16 5 4 -6 2 -11 -4 -11 -6 0 -9 -4 -5 -9 3 -5 17 -6 33 -2 19 6 31 4 40 -5 7
-8 11 -14 10 -15 -27 -7 -37 -5 -32 4 3 7 -2 3 -10 -7 -9 -11 -16 -15 -16 -10
0 5 -9 10 -20 11 -16 1 -19 -4 -16 -27 2 -17 -2 -30 -9 -32 -7 -2 3 -11 22
-20 33 -15 35 -15 30 0 -2 9 -6 23 -8 31 -2 8 4 17 15 19 16 3 18 0 12 -22 -5
-20 -1 -28 16 -38 13 -6 28 -13 35 -14 6 -1 27 -7 45 -12 18 -6 47 -13 65 -15
17 -3 37 -8 43 -12 6 -4 18 -1 27 7 14 11 16 11 8 -2 -7 -13 -6 -13 7 -2 13
10 18 8 31 -12 12 -18 13 -26 4 -29 -9 -4 -9 -6 0 -6 16 -1 26 16 13 24 -5 3
-10 13 -10 21 0 13 11 15 66 11 37 -3 69 -10 73 -15 3 -5 15 -12 26 -15 11 -3
5 -5 -14 -4 -45 3 -52 -19 -9 -28 18 -4 39 -12 46 -17 8 -7 12 -7 12 3 0 8 4
7 13 -4 13 -19 58 -18 65 1 2 7 8 12 14 12 6 0 3 -9 -7 -20 -10 -11 -21 -17
-26 -15 -4 3 -10 1 -14 -5 -4 -7 -12 -7 -25 0 -17 9 -18 8 -13 -7 12 -31 29
-43 42 -30 8 8 11 7 11 -4 0 -12 2 -12 9 0 8 12 12 12 25 2 8 -7 20 -10 26 -6
5 3 10 1 10 -4 0 -6 7 -11 15 -11 8 0 15 7 15 16 0 8 4 12 10 9 14 -9 100 -13
100 -4 0 13 44 18 59 6 10 -8 13 -8 8 -1 -4 7 0 14 7 17 8 3 17 1 20 -6 2 -7
5 -5 5 4 1 13 10 17 42 15 22 0 45 4 51 11 10 12 41 7 34 -6 -6 -9 99 -5 115
4 8 5 10 4 5 -3 -4 -7 -1 -12 8 -12 8 0 17 8 19 18 4 16 5 16 6 0 0 -10 6 -18
12 -18 6 0 9 9 6 20 -3 11 -2 20 3 20 4 0 10 -9 13 -19 3 -14 11 -18 26 -14
12 3 21 9 21 14 0 9 42 5 59 -5 5 -4 12 -2 16 4 3 5 11 10 16 10 6 0 7 -6 3
-12 -6 -10 -4 -10 8 0 12 9 18 10 23 2 4 -7 11 -8 18 -2 17 14 194 21 207 8 7
-7 10 -6 10 2 0 7 11 12 24 12 14 0 28 5 32 12 5 8 10 7 18 -3 13 -17 89 -22
79 -5 -3 6 5 1 18 -11 l23 -23 30 28 c16 15 26 21 22 15 -5 -9 2 -13 27 -13
18 0 37 3 41 7 3 4 14 8 22 9 11 2 14 -3 11 -17 -5 -17 -3 -18 10 -8 17 14 55
20 47 7 -3 -4 0 -8 6 -8 6 0 9 -4 5 -9 -3 -6 6 -8 22 -5 32 6 43 15 25 21 -6
3 -10 9 -6 14 10 16 24 10 24 -11 0 -11 5 -20 11 -20 5 0 7 5 3 11 -4 7 0 9
13 5 13 -4 25 0 34 11 12 14 12 16 0 8 -10 -5 -12 -4 -7 3 8 13 35 16 60 6 9
-3 13 -10 10 -15 -3 -5 0 -9 7 -9 6 0 9 8 6 20 -3 11 -1 18 3 15 5 -3 11 -1
15 5 3 5 16 10 28 10 21 -1 21 -1 4 -11 -17 -10 -16 -13 12 -30 32 -19 41 -39
18 -39 -7 0 -18 5 -24 11 -7 7 -19 8 -30 3 -10 -4 -22 -9 -28 -9 -5 -1 -18 -5
-28 -10 -14 -6 -16 -10 -6 -16 7 -4 18 -5 23 -2 20 13 61 9 80 -6 14 -12 20
-13 23 -3 7 19 22 14 20 -8 -1 -11 -7 -20 -14 -20 -7 0 -13 -4 -13 -10 0 -5 7
-10 15 -10 8 0 12 -6 9 -14 -3 -8 0 -17 5 -21 6 -3 8 -11 5 -17 -4 -6 -2 -8 4
-4 6 3 17 -2 24 -13 13 -19 14 -18 27 10 12 28 29 34 43 15 3 -5 4 -16 1 -23
-4 -11 -8 -12 -13 -3 -9 15 -30 4 -30 -15 0 -10 7 -12 29 -5 31 9 54 0 49 -20
-4 -16 38 -21 71 -8 20 7 22 6 13 -5 -7 -8 -9 -17 -5 -21 4 -4 0 -4 -10 0 -13
5 -16 2 -11 -10 7 -18 -3 -20 -25 -7 -16 10 -53 -8 -44 -22 3 -4 11 0 19 10
13 17 13 17 14 -4 0 -13 -4 -23 -10 -23 -5 0 -24 -15 -41 -32 -17 -18 -35 -32
-40 -31 -4 2 -6 -4 -2 -12 5 -13 7 -13 19 2 13 17 13 17 14 1 0 -19 20 -26 20
-8 0 15 27 12 33 -4 3 -7 0 -13 -6 -13 -32 1 -57 -4 -57 -10 0 -5 23 -7 52 -6
32 1 47 -1 39 -7 -8 -4 -11 -15 -7 -25 4 -13 1 -16 -17 -14 -40 6 -51 -10 -26
-37 12 -13 26 -21 30 -18 5 3 9 0 9 -6 0 -7 -7 -10 -15 -6 -8 3 -15 1 -15 -3
0 -12 30 -22 42 -15 5 3 17 -1 27 -10 9 -8 27 -14 39 -11 12 2 24 1 26 -3 5
-8 104 -7 113 1 2 3 16 3 30 1 14 -3 31 0 39 7 11 9 14 9 14 0 0 -7 5 -9 10
-6 6 4 10 3 9 -2 -3 -19 2 -33 12 -33 5 0 8 4 5 8 -2 4 0 14 5 22 8 12 9 11 7
-5 -2 -14 2 -19 15 -17 9 2 17 -2 17 -7 0 -6 6 -8 13 -5 19 7 95 -64 79 -75
-10 -6 -9 -11 4 -22 9 -8 20 -14 23 -14 3 0 5 -4 3 -9 -2 -5 8 -6 22 -4 14 3
23 2 21 -2 -3 -4 11 -11 30 -14 19 -4 35 -12 35 -19 1 -7 5 -6 13 4 9 12 30
15 90 15 82 -1 122 7 112 24 -3 6 1 7 9 4 9 -3 16 -1 16 5 0 6 9 11 21 11 11
0 29 5 40 10 13 7 19 7 19 0 0 -5 6 -10 13 -10 8 0 13 12 13 30 -1 16 4 29 9
27 6 -1 9 -8 9 -14 -3 -20 13 -15 30 9 9 12 16 19 16 14 0 -5 7 -3 15 4 12 10
19 10 27 2 9 -9 4 -13 -21 -18 -20 -4 -29 -10 -23 -16 6 -6 17 -6 29 1 31 16
93 89 93 109 0 85 -55 236 -101 277 -18 17 -23 16 -101 -13 -123 -46 -148 -48
-221 -22 -34 13 -75 33 -92 45 -16 12 -44 26 -60 32 -17 6 -59 29 -94 52 -35
22 -67 41 -71 41 -4 0 -19 17 -34 38 -38 55 -35 102 12 182 35 62 62 115 62
125 0 3 -7 5 -15 5 -23 0 -18 36 9 58 33 26 41 127 12 164 -12 16 -16 16 -42
4 -42 -21 -122 -41 -130 -33 -4 4 1 13 10 20 10 8 20 25 21 40 2 14 8 42 15
62 16 50 8 62 -20 31 -29 -31 -72 -56 -95 -56 -16 0 -16 9 5 65 4 11 8 24 8
28 1 4 8 15 17 23 8 9 13 20 10 24 -5 9 9 38 53 111 21 34 77 73 136 95 l30
10 -32 24 c-17 13 -29 27 -26 31 2 5 -5 18 -17 30 -17 17 -20 29 -15 57 3 20
1 42 -6 49 -17 21 20 16 44 -7 36 -33 84 -50 145 -50 58 0 178 21 228 40 26
10 64 47 65 62 0 14 52 83 61 81 4 -2 6 3 3 10 -6 17 151 178 235 241 93 70
135 90 160 76 12 -6 22 -15 22 -20 1 -6 2 -16 3 -22 1 -7 -2 -16 -8 -19 -5 -4
20 -50 55 -103 34 -53 64 -104 65 -113 6 -39 26 -44 100 -23 71 19 287 66 355
77 26 4 40 0 53 -13 17 -16 17 -18 1 -30 -15 -11 -15 -15 0 -61 14 -39 16 -69
10 -163 -9 -166 -9 -165 -17 -170 -4 -3 -8 -25 -9 -48 -2 -24 -7 -46 -11 -48
-4 -3 -8 -13 -8 -23 0 -10 -13 -48 -30 -84 -16 -37 -30 -69 -30 -73 0 -4 25
-4 55 -2 39 3 56 1 59 -8 3 -8 0 -17 -7 -21 -14 -9 -57 -86 -57 -101 0 -6 11
-28 25 -48 16 -24 22 -41 16 -47 -5 -5 -40 -19 -77 -31 -37 -12 -69 -27 -72
-34 -2 -6 16 -31 39 -57 l42 -45 -31 0 c-17 0 -52 -4 -79 -10 -26 -5 -75 -12
-107 -16 -37 -4 -54 -9 -46 -14 7 -5 24 -4 37 1 14 5 42 9 63 9 39 0 39 0 45
-47 16 -127 61 -239 97 -240 7 0 42 -6 78 -12 54 -9 68 -8 88 5 13 9 26 13 29
10 8 -8 -26 -83 -44 -97 -22 -19 -16 -26 53 -70 l65 -43 -38 -18 c-21 -10 -65
-28 -98 -40 -33 -12 -62 -24 -65 -28 -6 -7 -155 -80 -164 -80 -13 0 -174 -102
-204 -130 -18 -16 -37 -30 -41 -30 -12 0 -144 -142 -194 -210 -83 -114 -90
-121 -104 -116 -7 3 -13 -1 -13 -9 0 -7 -5 -17 -12 -21 -8 -5 -9 -2 -5 9 4 10
1 17 -6 17 -8 0 -6 4 3 10 13 9 13 10 -1 10 -8 0 -46 -16 -85 -35 -38 -19 -72
-35 -77 -35 -23 0 73 236 104 256 17 10 -15 23 -61 23 -33 0 -37 -4 -83 -82
-65 -113 -111 -212 -126 -272 -7 -27 -23 -64 -37 -82 -22 -29 -22 -32 -6 -38
9 -3 33 -19 52 -35 l35 -30 -30 6 c-16 4 -48 22 -69 41 -22 18 -50 33 -63 33
-29 0 -57 -43 -74 -112 -11 -48 -11 -50 21 -89 45 -56 25 -71 -25 -19 -21 22
-45 40 -52 40 -19 0 -113 -49 -113 -59 0 -4 20 -18 45 -31 25 -13 45 -27 45
-32 0 -13 -14 -10 -73 18 -43 19 -70 25 -114 23 -32 -1 -64 -4 -71 -7 -15 -5
-56 -81 -48 -89 3 -3 25 0 50 6 28 7 54 8 68 2 34 -13 126 -107 149 -154 l21
-40 -27 7 c-18 5 -24 3 -20 -4 3 -6 9 -22 11 -37 3 -15 10 -33 15 -40 6 -7 8
-17 4 -23 -3 -5 -2 -10 4 -10 9 0 25 -51 21 -66 -3 -11 29 -26 40 -19 6 3 10
19 10 34 0 16 3 42 6 58 6 29 9 31 70 36 36 4 71 10 79 15 9 4 39 5 68 2 70
-7 86 -3 98 27 l9 25 24 -23 c12 -13 55 -46 94 -73 39 -28 70 -52 67 -54 -10
-11 -55 11 -110 53 -42 33 -65 45 -80 40 -11 -3 -56 -10 -100 -15 -44 -5 -105
-12 -135 -16 l-55 -6 -2 -41 c-2 -48 3 -53 91 -96 39 -19 71 -41 73 -52 3 -10
11 -15 19 -12 8 3 21 -7 31 -26 10 -17 22 -31 26 -31 5 0 6 -4 2 -10 -5 -8 16
-56 56 -132 5 -10 9 -27 9 -38 0 -11 4 -20 9 -20 5 0 14 -13 19 -29 6 -16 20
-39 32 -51 16 -16 19 -25 10 -35 -9 -11 0 -17 47 -30 31 -9 74 -25 93 -35 43
-22 145 -122 168 -165 42 -78 91 -233 98 -313 19 -209 22 -282 12 -276 -4 3
-8 12 -8 20 0 8 -7 14 -16 14 -8 0 -13 4 -9 9 3 5 1 12 -5 16 -13 8 -13 3 6
-61 l15 -54 560 0 559 0 0 1228 c0 969 -3 1231 -12 1241 -10 11 -10 14 -1 18
10 3 12 234 13 1034 0 827 -2 1029 -12 1023 -10 -6 -11 -4 0 7 9 10 12 82 12
291 0 153 -4 278 -8 278 -4 0 -14 -6 -21 -12 -11 -11 -14 -10 -18 0 -4 10
-158 12 -756 12 l-752 -1 -2 -22 c-1 -12 -9 -69 -16 -126 -13 -97 -16 -105
-47 -132 -18 -16 -35 -29 -38 -29 -4 0 14 26 28 40 15 15 29 61 34 110 11 102
13 115 20 138 l7 22 -923 -4 c-508 -3 -941 -5 -963 -6 -22 0 -210 2 -417 6
-326 5 -379 4 -384 -9z m2950 -22 c-9 -14 -21 -25 -28 -25 -17 0 -75 -67 -82
-95 -3 -14 -10 -25 -14 -25 -13 0 6 57 29 86 21 26 90 82 104 83 4 1 0 -10 -9
-24z m1256 -8 c0 -14 -20 -37 -32 -37 -4 0 -2 11 4 25 12 27 28 34 28 12z
m-1030 -47 c0 -5 -5 -10 -11 -10 -5 0 -7 5 -4 10 3 6 8 10 11 10 2 0 4 -4 4
-10z m-2792 -119 c2 -81 31 -240 52 -280 l21 -42 -30 22 c-38 28 -44 45 -47
139 -1 41 -5 109 -9 150 -4 49 -3 70 3 61 5 -7 10 -30 10 -50z m442 55 c0 -3
-4 -8 -10 -11 -5 -3 -10 -1 -10 4 0 6 5 11 10 11 6 0 10 -2 10 -4z m-14 -48
c-4 -13 -9 -30 -11 -38 -2 -8 -4 -16 -4 -17 -1 -2 0 -5 2 -8 1 -2 -7 -11 -18
-19 -11 -9 -17 -16 -13 -16 4 0 -4 -22 -17 -49 -14 -27 -25 -65 -25 -84 0 -43
-9 -69 -21 -61 -15 9 27 164 44 164 4 0 5 5 2 10 -4 6 2 25 13 43 11 17 23 47
27 65 3 17 11 32 17 32 6 0 8 -9 4 -22z m3001 -24 c-3 -3 -12 -4 -19 -1 -8 3
-5 6 6 6 11 1 17 -2 13 -5z m-3250 -26 c-3 -8 -6 -5 -6 6 -1 11 2 17 5 13 3
-3 4 -12 1 -19z m2239 -6 c-17 -16 -18 -16 -5 5 7 12 15 20 18 17 3 -2 -3 -12
-13 -22z m954 9 c-13 -11 -28 -17 -33 -14 -5 3 2 11 15 18 35 20 46 17 18 -4z
m-2417 -46 c-3 -9 -8 -14 -10 -11 -3 3 -2 9 2 15 9 16 15 13 8 -4z m1267 -29
c0 -2 -7 -9 -15 -16 -13 -11 -14 -10 -9 4 5 14 24 23 24 12z m-1289 -29 c-10
-9 -11 -8 -5 6 3 10 9 15 12 12 3 -3 0 -11 -7 -18z m-22 -54 c-6 -16 -18 -36
-26 -45 -9 -10 -13 -18 -8 -18 4 0 1 -7 -6 -16 -8 -10 -19 -29 -26 -43 -6 -14
-12 -19 -12 -11 -1 23 71 160 85 160 2 0 -1 -12 -7 -27z m1337 -1 c-17 -16
-18 -16 -5 5 7 12 15 20 18 17 3 -2 -3 -12 -13 -22z m-542 -26 c-3 -14 -10
-23 -15 -20 -5 3 -6 11 -2 17 4 7 8 15 9 20 1 4 2 10 3 14 0 3 3 4 6 1 4 -3 3
-17 -1 -32z m-436 -8 c-6 -18 -13 -27 -15 -21 -4 11 13 53 22 53 2 0 -1 -15
-7 -32z m-1203 12 c3 -5 1 -10 -4 -10 -6 0 -11 5 -11 10 0 6 2 10 4 10 3 0 8
-4 11 -10z m2215 -10 c0 -5 -5 -10 -11 -10 -5 0 -7 5 -4 10 3 6 8 10 11 10 2
0 4 -4 4 -10z m-2354 -58 c-11 -10 -15 4 -8 28 l7 25 3 -23 c2 -13 1 -26 -2
-30z m2066 16 c-8 -8 -9 -4 -5 13 4 13 8 18 11 10 2 -7 -1 -18 -6 -23z m-307
1 c-10 -15 -25 -10 -19 6 4 8 10 12 15 9 5 -3 7 -10 4 -15z m-593 -47 c-9 -23
-21 -42 -25 -42 -5 0 -6 3 -4 8 2 4 12 24 21 45 24 51 31 42 8 -11z m578 13
c0 -8 -14 -29 -31 -47 -33 -35 -29 -18 4 20 11 12 17 22 13 22 -4 0 -4 5 -1
10 9 14 15 12 15 -5z m-1744 -27 c-3 -18 -8 -42 -10 -54 -4 -21 -9 -92 -7
-106 1 -4 11 3 24 15 13 12 22 25 20 30 -2 4 1 7 6 7 19 0 12 -15 -18 -44 -16
-16 -35 -41 -41 -57 -7 -16 -16 -26 -21 -23 -5 3 -9 -3 -9 -12 0 -10 -3 -14
-6 -11 -4 3 2 23 12 44 13 27 17 56 15 101 -2 42 1 62 9 62 6 0 8 5 5 10 -9
15 4 70 17 70 6 0 8 -13 4 -32z m279 2 c3 -5 1 -10 -4 -10 -6 0 -11 5 -11 10
0 6 2 10 4 10 3 0 8 -4 11 -10z m-138 -22 c-3 -8 -6 -5 -6 6 -1 11 2 17 5 13
3 -3 4 -12 1 -19z m752 -9 c-22 -14 -33 -10 -19 6 7 8 17 12 22 9 6 -4 5 -10
-3 -15z m436 -21 c-3 -23 -7 -44 -10 -46 -3 -3 -3 10 -1 29 2 19 4 40 5 47 0
6 3 12 6 12 3 0 3 -19 0 -42z m-2180 -28 c3 -5 1 -10 -4 -10 -6 0 -11 5 -11
10 0 6 2 10 4 10 3 0 8 -4 11 -10z m995 6 c0 -3 -4 -8 -10 -11 -5 -3 -10 -1
-10 4 0 6 5 11 10 11 6 0 10 -2 10 -4z m1230 -59 c0 -8 -20 -33 -45 -56 -30
-28 -45 -37 -45 -26 0 8 8 19 17 22 24 9 53 41 53 58 0 8 5 15 10 15 6 0 10
-6 10 -13z m-716 -22 c3 -8 1 -15 -4 -15 -6 0 -10 7 -10 15 0 8 2 15 4 15 2 0
6 -7 10 -15z m616 -75 c0 -5 -5 -10 -11 -10 -5 0 -7 5 -4 10 3 6 8 10 11 10 2
0 4 -4 4 -10z m-2383 -6 c-3 -3 -12 -4 -19 -1 -8 3 -5 6 6 6 11 1 17 -2 13 -5z
m2780 -24 c-14 -11 -28 -20 -32 -20 -10 0 38 39 49 40 5 0 -3 -9 -17 -20z
m-412 0 c-4 -6 -10 -8 -14 -6 -4 3 -15 -8 -25 -25 -9 -16 -22 -29 -27 -29 -5
0 3 16 18 35 15 19 34 35 41 35 7 0 10 -5 7 -10z m-2393 -43 c-7 -8 -10 -16
-7 -19 3 -3 -1 -11 -10 -18 -8 -7 -15 -9 -15 -5 0 12 34 65 38 60 3 -3 0 -11
-6 -18z m1138 -17 c-20 -13 -33 -13 -25 0 3 6 14 10 23 10 15 0 15 -2 2 -10z
m1620 -4 c0 -3 -4 -8 -10 -11 -5 -3 -10 -1 -10 4 0 6 5 11 10 11 6 0 10 -2 10
-4z m-2477 -53 c-30 -58 -49 -79 -38 -43 7 22 52 90 60 90 2 0 -8 -21 -22 -47z
m811 13 c-3 -9 -12 -16 -20 -16 -11 0 -10 4 4 18 20 22 25 21 16 -2z m-610
-53 c-9 -53 -15 -55 -12 -5 2 23 7 42 11 42 4 0 5 -17 1 -37z m176 22 c0 -8
-4 -15 -10 -15 -5 0 -7 7 -4 15 4 8 8 15 10 15 2 0 4 -7 4 -15z m-580 -10 c0
-8 -4 -15 -10 -15 -5 0 -7 7 -4 15 4 8 8 15 10 15 2 0 4 -7 4 -15z m250 -35
c0 -22 -2 -40 -4 -40 -2 0 -6 18 -8 40 -2 22 0 40 4 40 5 0 8 -18 8 -40z m320
11 c0 -6 -4 -13 -10 -16 -5 -3 -10 1 -10 9 0 9 5 16 10 16 6 0 10 -4 10 -9z
m-590 -11 c0 -3 -9 -16 -20 -30 l-19 -25 1 32 c1 24 5 31 20 30 10 -1 18 -4
18 -7z m1030 -80 c0 -5 -2 -10 -4 -10 -3 0 -8 5 -11 10 -3 6 -1 10 4 10 6 0
11 -4 11 -10z m-25 -20 c-3 -5 -12 -10 -18 -10 -7 0 -6 4 3 10 19 12 23 12 15
0z m-25 -23 c0 -2 -10 -12 -22 -23 l-23 -19 19 23 c18 21 26 27 26 19z m570
-41 c0 -2 -11 -11 -25 -20 -14 -9 -25 -13 -25 -8 0 5 10 14 23 20 27 13 27 13
27 8z m-55 -416 c4 -6 -6 -10 -22 -9 -25 0 -26 1 -8 9 11 5 21 9 22 9 1 1 5
-3 8 -9z m100 0 c3 -5 1 -10 -4 -10 -6 0 -11 5 -11 10 0 6 2 10 4 10 3 0 8 -4
11 -10z m139 -2 c-3 -4 -9 -8 -15 -8 -5 0 -9 4 -9 8 0 5 7 9 15 9 8 0 12 -4 9
-9z m-1584 -58 c0 -5 -4 -10 -10 -10 -5 0 -10 5 -10 10 0 6 5 10 10 10 6 0 10
-4 10 -10z m2210 -62 c0 -18 -2 -20 -9 -8 -6 8 -7 18 -5 22 9 14 14 9 14 -14z
m-520 2 c0 -5 -5 -10 -11 -10 -5 0 -7 5 -4 10 3 6 8 10 11 10 2 0 4 -4 4 -10z
m280 5 c0 -2 -10 -9 -22 -15 -22 -11 -22 -10 -4 4 21 17 26 19 26 11z m140
-10 c0 -2 -6 -5 -13 -8 -8 -3 -14 1 -14 8 0 7 6 11 14 8 7 -3 13 -6 13 -8z
m334 7 c3 -5 -1 -9 -9 -9 -8 0 -12 4 -9 9 3 4 7 8 9 8 2 0 6 -4 9 -8z m-887
-8 c-3 -3 -12 -4 -19 -1 -8 3 -5 6 6 6 11 1 17 -2 13 -5z m328 -4 c-3 -5 -12
-10 -18 -10 -7 0 -6 4 3 10 19 12 23 12 15 0z m285 -5 c0 -1 -12 -2 -26 -2
-17 0 -22 2 -13 7 10 7 39 3 39 -5z m-1080 -5 c0 -5 -8 -10 -17 -10 -15 0 -16
2 -3 10 19 12 20 12 20 0z m-743 -24 c2 -2 -9 -3 -26 -2 -16 0 -27 4 -25 8 4
7 43 3 51 -6z m63 -11 c0 -8 -4 -15 -10 -15 -5 0 -7 7 -4 15 4 8 8 15 10 15 2
0 4 -7 4 -15z m55 5 c3 -5 -1 -10 -10 -10 -9 0 -13 5 -10 10 3 6 8 10 10 10 2
0 7 -4 10 -10z m-85 -10 c0 -5 -7 -10 -16 -10 -8 0 -12 5 -9 10 3 6 10 10 16
10 5 0 9 -4 9 -10z m125 0 c3 -5 1 -10 -4 -10 -6 0 -11 5 -11 10 0 6 2 10 4
10 3 0 8 -4 11 -10z m-168 -6 c-3 -3 -12 -4 -19 -1 -8 3 -5 6 6 6 11 1 17 -2
13 -5z m1790 -10 c-3 -3 -12 -4 -19 -1 -8 3 -5 6 6 6 11 1 17 -2 13 -5z
m-1762 -34 c-3 -5 -12 -10 -18 -10 -7 0 -6 4 3 10 19 12 23 12 15 0z m1834
-74 c-2 -2 -14 -7 -26 -10 -18 -6 -23 -3 -23 9 0 11 5 15 15 11 8 -3 15 0 15
6 0 9 3 9 12 0 6 -6 10 -13 7 -16z m6 -32 c-18 -13 -35 -11 -35 5 0 5 12 9 27
9 25 0 25 -1 8 -14z m-10 -44 c3 -5 1 -10 -4 -10 -6 0 -11 5 -11 10 0 6 2 10
4 10 3 0 8 -4 11 -10z m139 -45 c-23 -17 -34 -19 -34 -4 0 5 5 7 10 4 6 -3 10
-1 10 4 0 6 8 11 17 11 15 0 14 -2 -3 -15z m66 -137 c0 -4 -6 -8 -14 -8 -8 0
-17 4 -20 8 -2 4 4 8 15 8 10 0 19 -4 19 -8z m-37 -65 c-5 -13 -35 -11 -40 3
-2 5 8 9 21 9 14 0 22 -5 19 -12z m82 -2 c-3 -6 -16 -11 -28 -11 -17 0 -19 2
-7 9 8 6 18 7 22 5 4 -3 8 0 8 7 0 7 3 10 6 6 3 -3 3 -10 -1 -16z m-53 -42
c-2 -9 3 -8 16 4 21 19 42 22 42 6 0 -6 7 -8 16 -5 8 3 12 2 9 -4 -3 -6 1 -10
9 -10 9 0 16 -4 16 -8 0 -15 -112 -15 -121 0 -7 10 -9 10 -9 1 0 -15 -9 -16
-29 -4 -12 8 -12 12 -2 25 15 18 57 14 53 -5z m148 -2 c0 -8 -6 -14 -13 -14
-8 0 -14 6 -14 14 0 7 6 13 14 13 7 0 13 -6 13 -13z m75 -6 c2 -4 -11 -7 -29
-7 -24 0 -30 3 -22 11 10 12 42 9 51 -4z m46 5 c5 3 9 0 9 -5 0 -6 -7 -11 -15
-11 -8 0 -15 8 -14 18 0 10 3 12 6 4 2 -6 9 -10 14 -6z m264 -74 c-3 -3 -11 0
-18 7 -9 10 -8 11 6 5 10 -3 15 -9 12 -12z m377 -14 c-7 -7 -12 -8 -12 -2 0 6
3 14 7 17 3 4 9 5 12 2 2 -3 -1 -11 -7 -17z m-781 0 c-1 -5 -3 -8 -6 -8 -48 0
-50 0 -35 10 16 11 41 9 41 -2z m672 -3 c-3 -9 -8 -14 -10 -11 -3 3 -2 9 2 15
9 16 15 13 8 -4z m-816 -1 c-3 -3 -12 -4 -19 -1 -8 3 -5 6 6 6 11 1 17 -2 13
-5z m73 -4 c0 -5 -7 -7 -15 -4 -8 4 -15 8 -15 10 0 2 7 4 15 4 8 0 15 -4 15
-10z m135 -12 c5 -4 0 -6 -13 -5 -22 1 -27 8 -15 20 3 4 9 4 12 0 3 -4 10 -11
16 -15z m82 5 c3 -8 -4 -12 -20 -11 -13 1 -24 7 -24 14 0 15 39 12 44 -3z m43
4 c0 -8 -6 -14 -14 -14 -8 0 -12 6 -9 14 3 7 9 13 14 13 5 0 9 -6 9 -13z m96
4 c8 6 21 8 31 4 10 -5 21 -8 24 -7 3 0 6 -6 6 -14 0 -10 -6 -13 -16 -8 -34
14 -54 17 -48 7 9 -15 -32 -9 -46 7 -10 12 -9 12 6 1 15 -12 17 -11 18 5 0 12
3 14 6 6 4 -10 8 -10 19 -1z m267 -16 l22 5 -22 -11 c-28 -15 -55 -5 -46 17 6
15 7 15 15 0 6 -11 17 -15 31 -11z m207 21 c0 -2 -7 -6 -15 -10 -8 -3 -15 -1
-15 4 0 6 7 10 15 10 8 0 15 -2 15 -4z m95 -16 c10 -11 16 -20 13 -20 -3 0
-13 9 -23 20 -10 11 -16 20 -13 20 3 0 13 -9 23 -20z m-374 -7 c16 -16 -29
-14 -54 3 -16 10 -15 12 12 10 17 -1 36 -7 42 -13z m135 3 c13 3 24 2 24 -2 0
-5 -14 -10 -30 -11 -23 -2 -30 2 -29 15 0 10 3 12 6 5 3 -8 14 -11 29 -7z m98
1 c16 -11 15 -13 -8 -15 -17 -1 -26 3 -26 13 0 18 11 19 34 2z m104 1 c8 -10
4 -13 -13 -14 -19 -2 -21 1 -12 12 15 16 13 16 25 2z m1480 -54 c26 -4 22 -11
-6 -12 -18 0 -29 5 -29 13 0 8 5 11 11 7 6 -3 17 -7 24 -8z m-1968 -78 c0 -3
-4 -8 -10 -11 -5 -3 -10 -1 -10 4 0 6 5 11 10 11 6 0 10 -2 10 -4z m721 -609
c-11 -29 -31 -37 -31 -12 0 8 4 23 9 33 5 9 13 26 17 37 7 18 8 18 11 -6 2
-14 -1 -37 -6 -52z m-14 -63 c-9 -9 -28 6 -21 18 4 6 10 6 17 -1 6 -6 8 -13 4
-17z m-7 -31 c0 -10 -20 -40 -20 -31 0 3 -3 13 -6 22 -4 11 -1 16 10 16 9 0
16 -3 16 -7z m-23 -60 c-3 -10 -13 -44 -22 -75 -18 -59 -14 -108 8 -108 6 0
31 -18 54 -39 23 -21 47 -41 55 -44 7 -3 -4 -6 -25 -6 -25 -1 -40 4 -43 14 -9
23 -80 52 -147 60 -47 5 -58 4 -63 -9 -3 -9 -15 -16 -25 -16 -17 0 -18 3 -9
20 9 16 21 20 68 20 63 0 75 6 80 35 2 11 9 23 14 26 6 4 8 12 4 17 -4 6 -2
19 3 29 6 10 18 35 27 56 17 38 29 50 21 20z m-197 -236 c0 -23 -35 -97 -46
-97 -20 0 -17 27 4 48 10 10 18 26 16 35 -1 9 4 17 12 17 8 0 14 -1 14 -3z"/>
<path d="M4357 4429 c-66 -16 -178 -89 -254 -166 -69 -71 -88 -103 -60 -103 6
0 21 7 31 15 11 8 26 15 35 15 8 0 22 6 30 14 22 18 141 29 141 12 0 -7 -20
-54 -45 -105 -25 -51 -45 -94 -45 -97 0 -5 73 -51 85 -53 6 0 10 3 10 8 0 4
23 25 50 46 100 75 109 91 119 210 4 44 9 99 12 122 4 24 3 54 0 68 -5 21 -12
25 -39 24 -17 -1 -49 -5 -70 -10z"/>
<path d="M3689 4325 c-34 -25 -89 -91 -89 -107 0 -4 9 -8 20 -8 11 0 20 6 20
13 0 8 20 36 45 63 61 67 62 81 4 39z"/>
<path d="M4089 4080 c0 -3 -2 -13 -4 -22 -2 -10 1 -18 5 -18 15 0 19 15 9 30
-5 8 -9 13 -10 10z"/>
<path d="M4050 4025 c-11 -13 -10 -14 4 -9 9 3 16 10 16 15 0 13 -6 11 -20 -6z"/>
<path d="M4000 4004 l-25 -15 25 7 c28 7 35 12 29 18 -2 2 -15 -2 -29 -10z"/>
<path d="M3910 3960 c-13 -9 -13 -10 0 -10 8 0 22 5 30 10 13 9 13 10 0 10 -8
0 -22 -5 -30 -10z"/>
<path d="M3850 3930 c-18 -12 -2 -12 25 0 13 6 15 9 5 9 -8 0 -22 -4 -30 -9z"/>
<path d="M3115 3899 c-37 -10 -75 -44 -75 -65 0 -20 27 -15 134 29 66 27 75
33 55 38 -33 10 -78 9 -114 -2z"/>
<path d="M4220 3870 c-12 -8 -11 -10 8 -10 12 0 22 5 22 10 0 13 -11 13 -30 0z"/>
<path d="M4049 3839 c-10 -6 -7 -9 11 -9 14 0 47 -12 75 -25 52 -25 66 -26 45
0 -9 11 -9 15 -1 15 7 0 9 5 6 10 -5 8 -11 7 -21 -1 -7 -6 -22 -8 -31 -4 -44
18 -71 22 -84 14z"/>
<path d="M4196 3838 c3 -5 10 -6 15 -3 13 9 11 12 -6 12 -8 0 -12 -4 -9 -9z"/>
<path d="M3210 3771 c-64 -15 -85 -28 -106 -67 -24 -44 -19 -78 14 -88 19 -6
42 -45 42 -71 0 -7 5 -15 11 -17 5 -2 11 -18 11 -36 1 -17 5 -32 10 -32 4 0
27 18 49 40 32 31 39 43 30 54 -6 7 -13 27 -15 43 -1 16 -15 47 -29 68 -25 36
-25 40 -9 50 9 5 70 10 134 10 107 0 119 2 139 22 l22 22 -34 -1 c-19 -1 -79
1 -134 5 -55 3 -116 2 -135 -2z"/>
<path d="M4240 3761 c0 -15 107 -51 153 -51 29 0 38 3 27 9 -8 6 -17 8 -21 5
-5 -2 -40 7 -80 21 -83 29 -79 28 -79 16z"/>
<path d="M4330 3640 c-9 -6 -10 -10 -3 -10 6 0 15 5 18 10 8 12 4 12 -15 0z"/>
<path d="M2980 3328 c-22 -24 -40 -52 -40 -64 0 -18 53 -84 69 -84 8 0 29 49
35 83 3 16 10 34 15 41 7 9 7 16 -1 24 -9 9 -9 12 1 12 9 0 8 4 -3 15 -22 23
-33 19 -76 -27z"/>
<path d="M2045 3310 c3 -5 8 -10 11 -10 2 0 4 5 4 10 0 6 -5 10 -11 10 -5 0
-7 -4 -4 -10z"/>
<path d="M1330 3306 c0 -2 8 -10 18 -17 15 -13 16 -12 3 4 -13 16 -21 21 -21
13z"/>
<path d="M3334 3258 c-5 -7 -9 -15 -9 -18 -4 -25 -21 -49 -50 -68 -20 -12 -33
-27 -30 -33 4 -5 18 -1 34 10 33 24 57 51 45 51 -5 0 2 6 16 13 14 7 25 21 25
31 0 23 -20 32 -31 14z"/>
<path d="M4195 3234 c-38 -7 -87 -16 -107 -19 -21 -3 -38 -9 -38 -14 0 -9 205
25 235 38 l20 10 -20 -1 c-11 0 -51 -6 -90 -14z"/>
<path d="M4000 3190 c-18 -12 -2 -12 25 0 13 6 15 9 5 9 -8 0 -22 -4 -30 -9z"/>
<path d="M1980 3179 c0 -5 5 -7 10 -4 6 3 10 8 10 11 0 2 -4 4 -10 4 -5 0 -10
-5 -10 -11z"/>
<path d="M3603 3129 c-46 -13 -48 -24 -9 -47 l34 -20 6 21 c3 12 1 24 -5 26
-5 1 -2 9 8 17 21 15 12 16 -34 3z"/>
<path d="M3748 3123 c6 -2 18 -2 25 0 6 3 1 5 -13 5 -14 0 -19 -2 -12 -5z"/>
<path d="M0 3035 c0 -53 4 -85 11 -85 5 0 8 -3 6 -7 -3 -5 1 -14 9 -21 10 -9
14 -9 14 -1 0 8 4 8 15 -1 8 -7 12 -17 8 -23 -3 -5 -1 -7 5 -4 15 10 42 -3 42
-20 0 -8 5 -11 11 -8 5 4 18 -3 28 -14 10 -12 23 -21 28 -21 6 0 17 -8 24 -17
13 -17 13 -17 -5 -3 -12 9 -17 10 -12 3 10 -18 101 -79 91 -62 -4 8 1 5 13 -6
24 -24 29 -28 201 -153 74 -53 156 -118 183 -144 26 -26 48 -45 48 -41 0 4 17
-9 38 -29 20 -20 60 -54 89 -75 29 -22 69 -55 90 -74 21 -18 54 -46 73 -60 19
-15 44 -35 55 -46 11 -10 47 -39 79 -63 33 -25 76 -61 97 -80 20 -19 78 -71
128 -115 82 -71 106 -98 84 -93 -23 4 -113 -42 -113 -58 0 -8 -7 -26 -16 -39
-11 -16 -17 -52 -19 -100 -3 -70 -1 -77 21 -93 14 -9 41 -29 61 -44 20 -16 47
-28 60 -28 23 0 185 63 209 82 6 5 14 27 18 50 l7 41 27 -24 c52 -47 65 -54
122 -59 52 -5 57 -4 49 11 -4 9 -10 30 -11 47 -1 17 -5 29 -9 26 -8 -4 -21 27
-18 42 1 5 1 11 -1 14 -1 3 -3 16 -6 29 -8 44 -75 115 -126 134 -10 3 -18 10
-18 16 0 5 -9 11 -21 14 -12 3 -18 10 -14 17 3 6 3 10 -2 9 -20 -3 -34 2 -28
11 3 6 2 10 -2 10 -11 0 -82 62 -164 143 -38 38 -73 66 -79 62 -6 -4 -9 -3 -8
2 5 15 -84 93 -186 163 -62 42 -137 99 -191 144 -33 28 -66 56 -73 61 -7 6
-23 20 -34 33 -12 12 -26 22 -32 22 -6 0 -44 23 -84 50 -41 28 -78 48 -83 44
-5 -3 -9 1 -9 9 0 8 -8 21 -17 28 -17 13 -17 13 -3 -5 14 -18 14 -19 -8 -7
-12 7 -20 16 -18 20 3 4 -6 19 -19 31 -14 13 -25 21 -25 18 0 -4 -15 7 -32 24
-56 51 -63 55 -81 53 -9 -2 -15 0 -12 5 7 11 -22 33 -35 25 -9 -6 -15 8 -11
28 1 5 -2 6 -7 3 -5 -3 -18 3 -28 12 -10 10 -53 40 -94 67 -41 28 -76 53 -78
58 -2 4 -10 7 -17 7 -7 0 -20 11 -29 25 -9 14 -21 23 -26 20 -4 -3 -10 -2 -12
2 -4 11 -77 67 -105 82 l-23 12 0 -86z m256 -263 c-4 -3 -14 2 -24 12 -16 18
-16 18 6 6 13 -6 21 -14 18 -18z m1164 -775 c0 -4 -16 7 -35 24 -45 41 -45 48
0 12 19 -15 35 -31 35 -36z m25 -17 c3 -5 1 -10 -4 -10 -6 0 -11 5 -11 10 0 6
2 10 4 10 3 0 8 -4 11 -10z"/>
<path d="M3640 3031 c0 -6 4 -13 10 -16 6 -3 7 1 4 9 -7 18 -14 21 -14 7z"/>
<path d="M2432 2921 c-7 -4 -5 -11 8 -18 14 -10 19 -9 23 2 7 15 -14 26 -31
16z"/>
<path d="M2430 2850 c0 -5 5 -10 11 -10 5 0 7 5 4 10 -3 6 -8 10 -11 10 -2 0
-4 -4 -4 -10z"/>
<path d="M2368 2833 c6 -2 18 -2 25 0 6 3 1 5 -13 5 -14 0 -19 -2 -12 -5z"/>
<path d="M2850 2726 c0 -2 7 -9 15 -16 13 -11 14 -10 9 4 -5 14 -24 23 -24 12z"/>
<path d="M2957 2677 c-9 -23 8 -40 33 -32 l22 7 -21 19 c-24 23 -27 23 -34 6z"/>
<path d="M3165 2530 c-23 -4 -30 -11 -31 -28 -1 -20 3 -22 23 -17 18 4 23 2
17 -6 -5 -8 -3 -9 6 -4 7 4 26 8 41 7 16 0 29 4 29 9 0 6 -4 7 -10 4 -6 -3 -7
1 -4 9 3 9 10 16 16 16 5 0 6 -4 3 -10 -3 -5 0 -10 8 -10 19 0 17 27 -2 27 -9
0 -25 -7 -35 -16 -18 -15 -18 -15 -8 4 12 23 4 25 -53 15z"/>
<path d="M3257 2475 c-4 -8 -2 -17 3 -20 6 -4 10 3 10 14 0 25 -6 27 -13 6z"/>
<path d="M3230 2440 c0 -5 5 -10 11 -10 5 0 7 5 4 10 -3 6 -8 10 -11 10 -2 0
-4 -4 -4 -10z"/>
<path d="M2124 1518 c-5 -8 -2 -9 10 -5 9 4 15 3 11 -2 -15 -25 133 -177 153
-156 9 8 -20 83 -40 105 -17 19 -18 20 -1 20 30 0 -15 25 -69 38 -57 15 -55
15 -64 0z"/>
<path d="M2068 1423 c6 -2 18 -2 25 0 6 3 1 5 -13 5 -14 0 -19 -2 -12 -5z"/>
<path d="M2015 1399 c-4 -5 -18 -15 -32 -20 -14 -5 -23 -12 -21 -15 7 -6 58
17 58 27 0 4 8 10 18 12 15 4 15 5 0 6 -9 0 -20 -4 -23 -10z"/>
<path d="M1905 1358 c-16 -6 -36 -12 -44 -15 -8 -2 -11 -6 -8 -10 9 -8 97 17
97 28 0 11 -5 10 -45 -3z"/>
<path d="M2275 1250 c-8 -16 -28 -37 -43 -47 -15 -9 -29 -18 -30 -19 -2 -2 4
-16 14 -33 18 -30 18 -31 -1 -45 -11 -8 -24 -12 -29 -9 -5 4 -6 1 -2 -5 3 -6
2 -13 -4 -17 -5 -3 -10 0 -10 7 -1 7 -13 -9 -27 -37 -31 -58 -31 -76 3 -128
23 -35 75 -68 106 -67 7 1 -1 7 -18 14 -17 8 -44 31 -60 52 -16 22 -32 40 -36
42 -12 6 8 56 28 66 10 6 23 16 27 21 6 6 10 6 14 -2 8 -21 26 -15 20 7 -3 11
-1 18 4 14 5 -3 9 -12 9 -20 0 -18 -4 -18 69 11 83 34 97 44 117 80 24 45 5
101 -36 110 -16 3 -34 13 -41 21 -20 25 -57 17 -74 -16z m-12 -187 c-6 -14 -8
-14 -14 3 -12 30 -10 37 5 24 8 -6 12 -19 9 -27z"/>
<path d="M2085 1260 c-25 -11 1 -11 35 0 20 6 21 8 5 8 -11 0 -29 -3 -40 -8z"/>
<path d="M2776 1260 c6 -6 21 -6 39 -1 30 9 30 9 -9 10 -26 1 -37 -2 -30 -9z"/>
<path d="M1990 1240 c-23 -7 -23 -8 -3 -9 12 -1 25 4 28 9 3 6 5 10 3 9 -2 -1
-14 -5 -28 -9z"/>
<path d="M2038 1243 c7 -3 16 -2 19 1 4 3 -2 6 -13 5 -11 0 -14 -3 -6 -6z"/>
<path d="M2401 1004 c0 -11 3 -14 6 -6 3 7 2 16 -1 19 -3 4 -6 -2 -5 -13z"/>
<path d="M2346 980 c-17 -6 -18 -7 -3 -13 9 -3 19 -2 23 4 9 15 2 18 -20 9z"/>
<path d="M3430 970 c0 -5 5 -10 10 -10 6 0 10 5 10 10 0 6 -4 10 -10 10 -5 0
-10 -4 -10 -10z"/>
<path d="M2382 960 c-12 -5 -30 -6 -39 -3 -11 4 -14 3 -9 -6 5 -7 22 -11 39
-9 31 3 33 0 29 -33 -1 -5 -8 -7 -14 -3 -7 4 -10 4 -6 -1 4 -4 3 -14 -4 -22
-8 -11 -7 -12 5 -7 9 3 19 14 22 25 4 11 11 16 17 13 6 -4 6 -10 -1 -17 -6 -6
-11 -16 -11 -21 0 -6 4 -5 9 3 7 11 12 10 27 -5 20 -20 20 -49 1 -73 -9 -10
-7 -13 8 -10 23 5 55 -24 55 -48 0 -16 -2 -16 -11 -3 -9 13 -10 13 -6 0 2 -8
0 -23 -5 -32 -5 -11 -5 -18 1 -18 5 0 11 8 13 18 3 12 7 8 15 -15 9 -25 9 -33
-2 -37 -10 -3 -12 0 -9 12 5 15 4 15 -9 0 -8 -10 -23 -18 -33 -18 -16 0 -17
-2 -3 -15 9 -9 41 -16 85 -19 83 -5 139 4 139 23 0 8 9 19 20 25 11 6 22 14
25 17 7 8 72 39 82 39 5 0 7 -4 3 -9 -3 -5 -1 -12 3 -15 5 -3 15 6 23 20 7 14
27 33 43 41 36 19 153 53 159 47 9 -10 140 -5 146 4 4 6 28 12 54 14 47 3 47
3 32 26 -13 18 -20 20 -36 11 -20 -10 -42 -13 -189 -23 -126 -9 -153 -16 -210
-56 -30 -20 -66 -41 -80 -45 -14 -4 -27 -11 -30 -14 -13 -17 -106 -71 -122
-71 -21 0 -24 23 -4 39 9 8 13 24 10 44 -2 21 0 27 5 18 5 -8 16 -11 25 -8 19
7 22 29 4 26 -21 -4 -88 29 -89 43 -1 7 -1 20 0 28 1 11 -1 11 -9 -2 -15 -25
-30 -22 -67 12 -32 29 -44 48 -21 34 7 -4 8 -3 4 5 -4 6 -12 9 -17 6 -5 -4 -9
1 -9 9 0 9 -4 16 -10 16 -5 0 -10 7 -10 15 0 8 -5 15 -11 15 -5 0 -7 5 -4 10
7 12 7 12 -23 0z m103 -119 c3 -5 2 -12 -3 -15 -5 -3 -9 1 -9 9 0 17 3 19 12
6z m424 -45 c-2 -2 -15 -9 -29 -15 -24 -11 -24 -11 -6 3 16 13 49 24 35 12z
m-314 -44 c-3 -3 -11 0 -18 7 -9 10 -8 11 6 5 10 -3 15 -9 12 -12z m229 -7
c-7 -16 -24 -21 -24 -6 0 8 7 13 27 20 1 1 0 -6 -3 -14z m-280 -51 c3 -8 2
-12 -4 -9 -6 3 -10 10 -10 16 0 14 7 11 14 -7z"/>
<path d="M3200 930 c0 -5 5 -10 11 -10 5 0 8 -4 5 -9 -9 -14 4 -41 20 -41 19
0 18 18 -1 22 -8 2 -11 8 -7 15 5 9 28 3 82 -22 41 -19 82 -34 90 -34 8 0 4 5
-10 12 -14 6 -56 26 -95 44 -73 34 -95 40 -95 23z"/>
<path d="M2346 922 c-3 -5 1 -9 9 -9 8 0 15 4 15 9 0 4 -4 8 -9 8 -6 0 -12 -4
-15 -8z"/>
<path d="M2290 850 c20 -13 53 -13 45 0 -3 6 -18 10 -33 10 -21 0 -24 -2 -12
-10z"/>
<path d="M2415 850 c-4 -6 -11 -7 -17 -4 -7 5 -8 2 -4 -5 5 -7 11 -10 14 -7 3
3 12 0 21 -7 14 -10 14 -10 4 4 -7 9 -10 19 -6 22 3 4 4 7 0 7 -3 0 -9 -5 -12
-10z"/>
<path d="M2516 851 c-3 -5 1 -11 9 -14 9 -4 12 -1 8 9 -6 16 -10 17 -17 5z"/>
<path d="M3435 850 c-17 -6 -16 -8 9 -14 33 -8 39 -5 22 10 -6 6 -20 8 -31 4z"/>
<path d="M2570 821 c0 -6 4 -13 10 -16 6 -3 7 1 4 9 -7 18 -14 21 -14 7z"/>
<path d="M2335 748 c17 -13 47 -41 68 -62 37 -39 37 -39 21 -8 -8 18 -19 32
-24 32 -5 0 -7 7 -3 15 3 9 2 15 -3 14 -9 -2 -36 6 -69 22 -11 5 -6 -1 10 -13z"/>
<path d="M3033 755 c0 -8 4 -12 9 -9 4 3 8 9 8 15 0 5 -4 9 -8 9 -5 0 -9 -7
-9 -15z"/>
<path d="M2410 740 c0 -9 25 -20 46 -20 9 0 13 4 10 9 -7 11 -56 21 -56 11z"/>
<path d="M2780 665 c-13 -25 -40 -35 -40 -14 0 5 -5 7 -11 4 -7 -5 -4 -15 9
-29 11 -11 17 -28 15 -36 -9 -26 27 28 43 65 16 40 4 48 -16 10z"/>
<path d="M2620 670 c-9 -6 -10 -10 -3 -10 6 0 15 5 18 10 8 12 4 12 -15 0z"/>
<path d="M2170 609 c-56 -11 -141 -37 -149 -45 -3 -3 3 -4 14 -1 27 8 176 21
198 18 18 -2 22 7 9 25 -8 12 -22 13 -72 3z"/>
<path d="M2252 551 c-8 -4 -14 -12 -15 -17 -1 -5 -6 -10 -12 -11 -46 -10 -63
-15 -104 -29 -25 -10 -50 -21 -55 -26 -6 -4 -18 -8 -29 -8 -10 0 -15 -5 -11
-11 3 -6 17 -8 32 -4 15 4 42 8 61 11 19 2 41 10 50 17 12 9 13 9 7 0 -9 -15
-9 -15 32 -3 29 8 32 7 22 -5 -7 -8 -16 -13 -20 -10 -5 3 -11 1 -14 -4 -17
-26 -331 -46 -446 -29 l-45 7 24 -20 c19 -15 26 -17 32 -7 7 10 9 9 9 -4 0
-17 44 -36 101 -43 37 -5 89 -27 89 -37 0 -4 6 -5 13 -2 7 2 21 -2 32 -9 17
-13 14 -14 -26 -8 -24 4 -90 6 -146 6 -55 0 -99 3 -97 6 2 3 -20 9 -49 12 -28
4 -68 9 -86 13 -32 5 -34 4 -21 -11 26 -32 82 -52 149 -54 35 -1 21 -10 -44
-27 -31 -8 -76 -29 -100 -47 -140 -102 -162 -120 -162 -132 0 -9 10 -6 31 10
51 38 93 55 133 55 l38 0 -30 -26 c-59 -49 -95 -86 -95 -95 0 -5 11 1 24 12
14 12 33 27 44 33 11 6 38 23 60 39 23 15 47 27 53 27 7 0 24 13 38 28 38 41
81 72 100 72 14 -1 14 -2 -2 -14 -23 -18 -165 -146 -188 -170 -11 -11 -19 -23
-19 -28 0 -4 424 -7 943 -7 778 -1 939 2 925 13 -20 15 -41 64 -32 77 3 6 15
7 27 3 31 -9 127 -73 127 -85 0 -5 17 -9 38 -8 20 0 31 3 25 6 -7 2 -13 9 -13
15 0 6 9 3 19 -6 11 -10 27 -16 35 -14 12 2 6 14 -25 47 -22 23 -47 57 -55 75
-20 42 -63 116 -83 141 -18 22 -41 31 -41 15 0 -6 5 -10 10 -10 6 0 10 -5 10
-11 0 -6 13 -40 30 -76 29 -61 46 -113 39 -113 -2 0 -26 11 -53 25 -27 14 -64
25 -82 25 -28 0 -33 4 -39 30 -4 17 -11 30 -16 30 -12 0 -8 -42 5 -51 4 -4 3
-9 -3 -13 -13 -8 -25 36 -18 64 3 11 2 20 -3 20 -4 0 -6 19 -4 42 2 23 -1 48
-6 57 -7 12 -9 7 -6 -17 1 -19 0 -52 -4 -73 -4 -22 -4 -41 0 -44 4 -2 5 -16 2
-30 -4 -25 -5 -26 -22 -7 -12 13 -20 44 -25 98 -7 78 -22 131 -26 89 -1 -11
-3 -24 -4 -30 -2 -5 -3 -16 -4 -22 0 -7 -8 -13 -16 -13 -8 0 -15 -1 -15 -2 0
-2 9 -32 20 -67 19 -62 18 -87 -1 -76 -14 10 -10 -5 6 -22 9 -8 14 -18 11 -20
-6 -7 -87 50 -133 93 -21 19 -46 40 -56 45 -17 10 -17 7 2 -29 11 -21 27 -44
35 -51 9 -8 16 -18 16 -23 0 -11 -27 4 -65 37 -56 49 -145 86 -145 59 0 -8 3
-13 8 -12 18 5 172 -113 172 -133 0 -9 -86 13 -125 33 -41 22 -89 76 -119 137
-15 28 -26 53 -26 56 2 73 -2 98 -11 82 -6 -10 -8 -25 -5 -32 3 -8 1 -17 -4
-20 -11 -7 -2 -85 12 -102 7 -9 7 -13 0 -13 -20 0 -36 43 -56 155 -2 11 -9 34
-16 50 l-12 30 -9 -24 c-6 -14 -6 -44 0 -73 6 -37 6 -47 -3 -38 -7 7 -12 60
-13 137 -1 69 -4 128 -7 130 -2 2 -11 -10 -20 -28 -11 -21 -16 -59 -16 -111 0
-43 -4 -78 -8 -78 -5 0 -9 6 -10 13 -1 16 -6 38 -27 112 -26 95 -25 92 -35 75
-9 -15 -4 -115 7 -133 3 -6 -6 -2 -20 9 -15 10 -27 25 -27 33 0 22 -62 93 -76
87 -8 -3 -11 0 -8 8 3 7 -2 13 -10 13 -12 0 -13 -4 -4 -21 6 -12 19 -28 28
-36 9 -8 24 -26 33 -40 33 -48 15 -55 -31 -11 -16 16 -33 27 -36 24 -3 -4 -6
-2 -6 4 0 5 -16 18 -35 29 -19 10 -35 23 -35 28 0 6 -5 5 -11 -1 -8 -8 -6 -17
10 -34 23 -25 28 -44 9 -33 -7 4 -31 23 -54 41 -23 18 -51 33 -63 33 -12 0
-19 4 -16 10 7 12 4 12 -13 1z m-42 -346 c0 -2 -32 -14 -71 -25 -39 -12 -79
-24 -88 -27 -10 -4 -9 0 5 10 11 8 38 19 60 22 21 4 46 11 54 16 16 9 40 12
40 4z m-250 -39 c0 -2 -8 -10 -17 -17 -16 -13 -17 -12 -4 4 13 16 21 21 21 13z
m45 -36 c-3 -5 -12 -10 -18 -10 -7 0 -6 4 3 10 19 12 23 12 15 0z m1413 -65
c6 -14 8 -25 4 -25 -12 0 -32 23 -32 37 0 22 16 15 28 -12z"/>
<path d="M1828 463 c7 -3 16 -2 19 1 4 3 -2 6 -13 5 -11 0 -14 -3 -6 -6z"/>
<path d="M1978 443 c7 -3 16 -2 19 1 4 3 -2 6 -13 5 -11 0 -14 -3 -6 -6z"/>
<path d="M3230 295 c0 -15 18 -40 24 -34 3 3 -1 14 -9 25 -8 10 -14 15 -15 9z"/>
<path d="M3737 263 c-4 -3 -2 -12 5 -20 6 -7 8 -16 5 -19 -3 -3 1 -23 8 -44 7
-21 11 -41 8 -44 -4 -3 0 -6 7 -6 7 0 11 -2 8 -6 -3 -3 3 -27 13 -53 18 -48
17 -61 -5 -61 -7 0 -6 3 1 8 9 5 3 18 -20 43 -18 19 -33 38 -34 42 -1 4 -7 15
-12 25 -10 16 -10 16 -11 0 0 -10 5 -18 11 -18 5 0 8 -4 4 -9 -3 -5 2 -17 11
-25 8 -9 12 -16 7 -16 -4 0 -3 -4 2 -8 6 -4 15 -16 21 -27 9 -17 23 -20 83
-23 l73 -3 -7 33 c-4 18 -9 42 -12 53 -3 11 -3 17 1 14 4 -3 12 -26 19 -50 10
-33 18 -45 35 -47 l22 -3 -21 53 c-11 29 -28 64 -37 78 -9 14 -22 36 -28 50
-10 25 -11 24 -32 -24 -12 -27 -22 -54 -22 -62 0 -7 -4 -15 -8 -18 -9 -5 -69
113 -64 126 1 5 -2 8 -8 8 -5 0 -7 6 -4 14 3 8 0 17 -5 21 -6 3 -9 11 -6 16 7
10 1 12 -8 2z m154 -176 c-3 -44 -20 -76 -22 -41 -1 10 0 24 1 29 7 30 9 41 9
54 1 8 4 11 8 7 4 -4 6 -26 4 -49z"/>
<path d="M1500 220 c-76 -8 -176 -35 -186 -51 -3 -5 12 -10 33 -11 21 0 58 -2
83 -4 38 -3 53 3 98 33 28 20 52 38 52 40 0 1 -1 2 -2 2 -2 -1 -37 -5 -78 -9z"/>
<path d="M442 135 c-63 -13 -116 -25 -118 -28 -11 -10 29 -37 55 -37 35 0 93
-19 106 -36 8 -9 51 -10 177 -4 92 4 172 11 178 15 17 11 -16 43 -54 51 -17 4
-63 20 -103 35 -85 34 -95 35 -241 4z"/>
<path d="M1375 10 c3 -5 25 -10 47 -10 51 0 47 5 -10 14 -29 4 -41 3 -37 -4z"/>
</g>
</svg>
