<svg version="1.1" id="Layer_1" xmlns="http://www.w3.org/2000/svg" xmlns:xlink="http://www.w3.org/1999/xlink" x="0px" y="0px" viewBox="0 0 1066 107.5" style="enable-background:new 0 0 1066 107.5;" xml:space="preserve"><script xmlns="" id="youtube-hd-{4cf120ba-c67a-47a9-9c99-7ab813d08379}">var ythdlog = () =&gt; {};;var ythderror = () =&gt; {};</script>
<style type="text/css">
	.st0{fill:#000000;}
</style>
<g>
	<g>
		
		<g>
			<g>
				<g>
					<path class="black" d="M902.1,56.2c6.2,0,11.3-5,11.4-11.3v-20l0,0c0-6.4-5.1-11.6-11.4-11.6c-6.3,0-11.4,5.2-11.4,11.6l0,0v20       C890.8,51.1,895.9,56.2,902.1,56.2z M938.6,4.4c-7.1,0-12,5-18,8c-0.4,0.2-0.9,0.4-1.3,0.6v31.9c-0.2,9.5-7.8,17.1-17.2,17.1       c-9.5,0-17.2-7.8-17.2-17.5c0,0,0-31.6,0-31.6c-0.4-0.2-0.9-0.4-1.3-0.6c-6-3-10.9-8-18-8c-12,0-20.8,12.5-16.7,24.1       c1.8,5.1,5.4,7.9,9.7,10.6c5.1,3.3,9.8,7.5,13.6,12.3c5.7,7.2,9.4,15.7,11.2,24.7c0.9,4.3,1.4,9.9,1.7,13.9       c0.8,9.1,7,16.6,17,16.6c9.9,0,16.1-7.5,16.9-16.6c0.4-4,0.9-9.6,1.7-13.9c1.8-9,5.6-17.5,11.2-24.7c3.8-4.8,8.4-9,13.6-12.3       c4.3-2.8,7.9-5.6,9.7-10.6C959.3,16.9,950.6,4.4,938.6,4.4z"/>
				</g>
				
			</g>
		</g>
	</g>
	<g>
		<g>
			<g>
				<path class="black" d="M924.4,99.4c0-2.7,2-4.8,4.5-4.8c2.5,0,4.5,2.2,4.5,4.8c0,2.7-2,4.8-4.5,4.8      C926.4,104.2,924.4,102.1,924.4,99.4z M932.8,99.4c0-2.3-1.8-4.1-3.9-4.1c-2.1,0-3.8,1.8-3.8,4.1c0,2.3,1.8,4.1,3.8,4.1      C931,103.5,932.8,101.6,932.8,99.4z M931.1,102h-0.8l-1.5-2.4h-0.8v2.4h-0.7v-5.3h2.2c0.9,0,1.8,0.3,1.8,1.4      c0,1-0.7,1.4-1.6,1.4L931.1,102z M928.8,98.8c0.6,0,1.7,0.1,1.7-0.7c0-0.5-0.7-0.6-1.2-0.6h-1.3v1.4H928.8z"/>
			</g>
		</g>
	</g>
</g>
</svg>