<svg xmlns="http://www.w3.org/2000/svg" viewBox="0 0 10.414 9.674" class="profile-icon" data-v-72451c1e="">
    <path d="M3.518.802v2.312c0 .242-.019.484 0 .726a1.665 1.665 0 003.312.186 14.5 14.5 0 00.019-1.581V1.23a2.725 2.725 0 010-.391s.3-.167.372-.2a4.4 4.4 0 011.1-.577 1.657 1.657 0 011.637.5 1.707 1.707 0 01.372 1.693c-.186.558-.651.819-1.1 1.135a5.442 5.442 0 00-1.972 2.512 7.915 7.915 0 00-.391 1.823 3.463 3.463 0 01-.167.949 1.538 1.538 0 01-1.247.986 1.614 1.614 0 01-1.86-1.47c-.056-.353-.074-.688-.112-1a5.361 5.361 0 00-2.028-3.591C.82 3.115-.035 2.78.002 1.699a1.554 1.554 0 01.26-.856A1.671 1.671 0 011.695.006c.781-.022 1.191.48 1.823.796z" fill="#ffffff"></path>
    <path d="M5.118.84a1.073 1.073 0 011.116.856 7.412 7.412 0 01.019 1.116 7.369 7.369 0 01-.019 1.116 1.051 1.051 0 01-.465.781 1.1 1.1 0 01-1.712-.819c-.037-.409 0-.8 0-1.191a4.371 4.371 0 01.056-1.135A1.157 1.157 0 015.118.84z" fill="#ffffff"></path>
</svg>
